<?xml version="1.0" encoding="UTF-8"?>
<svg id="Layer_1" xmlns="http://www.w3.org/2000/svg" version="1.1" viewBox="0 0 1014.58 230.08">
  <!-- Generator: Adobe Illustrator 29.5.1, SVG Export Plug-In . SVG Version: 2.1.0 Build 141)  -->
  <defs>
    <style>
      .st0 {
        font-family: Posterama2001W04-SemiBold, Posterama2001W04-SemiBold;
        font-size: 67.12px;
        font-weight: 600;
      }

      .st0, .st1 {
        fill: #313991;
      }

      .st1 {
        fill-rule: evenodd;
      }
    </style>
  </defs>
  <g>
    <polygon class="st1" points="291.18 197.42 291.18 226.29 215.3 226.29 191.44 226.29 179.08 226.29 179.08 56.58 215.3 56.58 215.3 197.42 291.18 197.42"/>
    <path class="st1" d="M482.05,51.41c-29.76,31.39-54.86,63.17-83.97,95.96-29.06-32.74-55.3-64.46-85.16-95.96v174.88h33.78v-91.18l51.38,57.9,50.19-56.54v89.82h33.78V51.41Z"/>
    <polygon class="st1" points="502.91 226.29 538.94 226.29 582.9 114.55 626.84 226.29 662.87 226.29 596.81 79.13 582.9 48.11 568.97 79.13 502.91 226.29"/>
    <polygon class="st1" points="804.45 226.29 840.48 226.29 884.43 114.55 928.37 226.29 964.4 226.29 898.34 79.13 884.43 48.11 870.5 79.13 804.45 226.29"/>
    <path class="st1" d="M740.51,81.32c14.45.35,27.55,4.5,39.9,10.84v-30.01c-63.72-32.69-121.63,10.87-100.84,52.02,16.27,32.21,63.3,35.69,75.44,55.82,4.77,7.93,3.9,16.68-1,22.58-14.27,17.19-61.77,5.25-77.58-9.15v32.94c16.9,8.65,33.9,13.66,51.01,13.73,70.6.25,89.93-73.32,25.23-103.66-10.1-4.73-30.62-11.85-37.06-19.69-9.71-11.85-.92-26.64,24.91-25.4"/>
    <polygon class="st1" points="0 226.29 36.04 226.29 79.97 114.55 123.93 226.29 159.95 226.29 93.9 79.13 79.97 48.11 66.05 79.13 0 226.29"/>
  </g>
  <text class="st0" transform="translate(920.99 57.05) scale(.97 1)"><tspan x="0" y="0">tm</tspan></text>
</svg>